# xmcd
#
# Track frame offsets:
#	150
#	18314
#	35602
#	52503
#	69973
#	85873
#	105819
#	120546
#	135465
#	151356
#	168123
#	186808
#	204822
#	223143
#	240771
#	257266
#	272265
#	287276
#	303048
#	318019
#	332556
#
# Disc length: 4646 seconds
# Revision: 0
# Processed by: cddbd v1.5.2PL0 Copyright (c) Steve Scherf et al.
# Submitted via: dBpowerAMP V12.0
#
DISCID=ee122415
DTITLE=Various Artist - Gnadenlos Sommer Folge4 CD1
DYEAR=2001
DGENRE=Discofox
TTITLE0=Oliver Frank - Prosecco (Album Mix)
TTITLE1=Bella Vista - Geliebt gestritten geweint
TTITLE2=Caesar - My Black Lady
TTITLE3=Francesco Napoli - Notte Chiara
TTITLE4=Modern Talking - I'm gonna be strong
TTITLE5=Frank Lars - Sowas von egal
TTITLE6=Nico Gemba - Der Film ist aus (Radio Mix)
TTITLE7=Tommy Fischer - Wo bist du
TTITLE8=Culture Beat - Mr Vain Recall (Radio Edit)
TTITLE9=Modern Talking - Cosmic Girl
TTITLE10=Francesco Napoli - Sento
TTITLE11=Guido Hoffmann - Als ob der Himmel brannte
TTITLE12=Matthias Carras - Ich bin dein Co-Pilot (Album Mix)
TTITLE13=Ibo - Ich wette 1 Million (Moonheads Remix)
TTITLE14=Nadine Norell - Wahnsinn
TTITLE15=Mike Bauhaus - Ich geb mir selbst 'ne Party (Party Mix)
TTITLE16=Oliver Frank - Wenn schon denn schon
TTITLE17=Andy Sprenger - Sterben für dich
TTITLE18=G.G. Anderson - Willst du mich küssen
TTITLE19=Peter Markus - Mein Herz geht durch die Hölle
TTITLE20=Ulli Bastian - Voll erwischt
EXTD=
EXTT0=
EXTT1=
EXTT2=
EXTT3=
EXTT4=
EXTT5=
EXTT6=
EXTT7=
EXTT8=
EXTT9=
EXTT10=
EXTT11=
EXTT12=
EXTT13=
EXTT14=
EXTT15=
EXTT16=
EXTT17=
EXTT18=
EXTT19=
EXTT20=
PLAYORDER=
